<svg id="coffee-cup" xmlns="http://www.w3.org/2000/svg" width="28.275" height="30.661" viewBox="0 0 28.275 30.661">
  <path id="Path_50" data-name="Path 50" d="M344.571,226.276q-.09,0-.178,0a4.3,4.3,0,1,0,.178,0Zm0,6.628a2.279,2.279,0,0,1-.377-.031,2.306,2.306,0,0,1,.2-4.575q.088-.007.178-.007a2.306,2.306,0,0,1,0,4.612Z" transform="translate(-321.066 -212.725)" fill="#fee6cc"/>
  <path id="Path_51" data-name="Path 51" d="M342.265,230.667a2.306,2.306,0,0,0,1.929,2.275,8.116,8.116,0,0,1-.688,1.914,4.322,4.322,0,0,1,.887-8.506v2.018A2.306,2.306,0,0,0,342.265,230.667Z" transform="translate(-321.066 -212.795)" fill="#fcce99"/>
  <path id="Path_52" data-name="Path 52" d="M132.776,206.441v5.336a8.219,8.219,0,1,1-16.437.089v-5.425a.593.593,0,0,1,.593-.593h15.25A.593.593,0,0,1,132.776,206.441Z" transform="translate(-110.565 -193.521)" fill="#fee6cc"/>
  <g id="Group_2" data-name="Group 2" transform="translate(5.774 16.651)">
    <path id="Path_53" data-name="Path 53" d="M124.157,336.017a3.454,3.454,0,0,1-.336.52,8.227,8.227,0,0,1-5.412-6.341,2.7,2.7,0,0,1,.575.291,2.781,2.781,0,0,1,1,1.21,5.2,5.2,0,0,1,.8-.064,3.5,3.5,0,0,1,3.663,2.513A2.822,2.822,0,0,1,124.157,336.017Z" transform="translate(-118.285 -327.072)" fill="#fcce99"/>
    <path id="Path_54" data-name="Path 54" d="M132.777,278.052v1.694a8.218,8.218,0,0,1-16.437,0v-1.694a8.218,8.218,0,0,0,16.437,0Z" transform="translate(-116.34 -278.052)" fill="#fcce99"/>
    <rect id="Rectangle_31" data-name="Rectangle 31" width="13.147" height="2.162" transform="translate(1.645 11.399)" fill="#fcce99"/>
  </g>
  <path id="Path_55" data-name="Path 55" d="M107.424,375.337a3.369,3.369,0,0,1-2.356,1.577c-1.638.325-3.156-.367-3.391-1.547,0-.01,0-.02-.005-.03-.21-1.17.923-2.373,2.546-2.7s3.156.366,3.391,1.547A1.728,1.728,0,0,1,107.424,375.337Z" transform="translate(-96.753 -350.251)" fill="#e2780e"/>
  <g id="Group_3" data-name="Group 3" transform="translate(4.894 23.491)">
    <path id="Path_56" data-name="Path 56" d="M107.819,418.911a3.369,3.369,0,0,1-2.356,1.577c-1.638.326-3.156-.366-3.391-1.547,0-.01,0-.02-.005-.03h5.752Z" transform="translate(-102.042 -417.315)" fill="#a85000"/>
    <path id="Path_57" data-name="Path 57" d="M105.07,395.435c-1.638.326-3.156-.367-3.39-1.546a1.579,1.579,0,0,1-.022-.475,3.406,3.406,0,0,0,5.792-1.151,1.581,1.581,0,0,1,.161.447C107.846,393.89,106.708,395.11,105.07,395.435Z" transform="translate(-101.65 -392.263)" fill="#a85000"/>
  </g>
  <path id="Path_58" data-name="Path 58" d="M52.784,349.695a4.284,4.284,0,0,1-.29.384c-.939,1.107-2.3,1.523-3.2.92a1.725,1.725,0,0,1-.674-.92,3.359,3.359,0,0,1,.544-2.8c.928-1.389,2.491-1.973,3.491-1.3S53.712,348.307,52.784,349.695Z" transform="translate(-46.791 -324.993)" fill="#e2780e"/>
  <g id="Group_4" data-name="Group 4" transform="translate(1.828 20.777)">
    <path id="Path_59" data-name="Path 59" d="M54.313,418.912c-.939,1.107-2.3,1.523-3.2.92a1.725,1.725,0,0,1-.674-.92Z" transform="translate(-50.438 -414.602)" fill="#a85000"/>
    <path id="Path_60" data-name="Path 60" d="M59.675,350.872c-.928,1.388-2.491,1.972-3.491,1.3a1.581,1.581,0,0,1-.351-.32,3.406,3.406,0,0,0,3.281-4.909,1.578,1.578,0,0,1,.43.2C60.544,347.816,60.6,349.484,59.675,350.872Z" transform="translate(-55.51 -346.946)" fill="#a85000"/>
  </g>
  <path id="Path_61" data-name="Path 61" d="M27.415,436.056v1.074l6.947,1.319H47.556L54.5,437.13v-1.074Z" transform="translate(-26.966 -409.943)" fill="#fee6cc"/>
  <path id="Path_62" data-name="Path 62" d="M47.456,212.128H43.119a.449.449,0,1,0,0,.9h3.888v.253l-6.54,1.242H27.358l-6.54-1.242v-.253H41.452a.449.449,0,1,0,0-.9h-2.9a8.693,8.693,0,0,0,3.077-3.369,4.723,4.723,0,0,0,1.793.349,4.771,4.771,0,1,0-.845-9.466v-.257a1.044,1.044,0,0,0-1.043-1.043H39.413a.449.449,0,0,0,0,.9h2.124a.144.144,0,0,1,.144.144v.764H26.143v-.764a.144.144,0,0,1,.144-.144H37.745a.449.449,0,0,0,0-.9H26.287a1.044,1.044,0,0,0-1.043,1.043v5.424a8.691,8.691,0,0,0,.234,2,2.851,2.851,0,0,0-2.4.5.449.449,0,1,0,.507.741,2.055,2.055,0,0,1,1.52-.406l-1.636,2.448a.449.449,0,1,0,.747.5l1.636-2.448a1.75,1.75,0,0,1,.267.966h0v0a3.262,3.262,0,0,1-.584,1.807,3.531,3.531,0,0,1-.768.833,2.831,2.831,0,0,1-.633.378H22.72l-.049-.03c-.748-.5-.8-1.791-.108-2.941a.449.449,0,1,0-.771-.461,4.039,4.039,0,0,0-.6,2.3,2.648,2.648,0,0,0,.323,1.133H20.369a.449.449,0,0,0-.449.449v1.074a.449.449,0,0,0,.365.441l6.6,1.254v1.329a.449.449,0,0,0,.449.449H40.486a.449.449,0,0,0,.449-.449v-1.329l6.605-1.254a.449.449,0,0,0,.365-.441v-1.074A.449.449,0,0,0,47.456,212.128Zm-4.876-9.444a1.857,1.857,0,1,1-.074,3.265,8.8,8.8,0,0,0,.074-1.14v-2.125Zm.845-2.22a3.872,3.872,0,0,1,0,7.745A3.834,3.834,0,0,1,42,207.937a8.564,8.564,0,0,0,.334-1.07,2.755,2.755,0,1,0,.245-5.154V200.6s0,0,0,0,0,0,0,0v-.035A3.876,3.876,0,0,1,43.425,200.464Zm-1.743.582v1.383h0v2.379a7.721,7.721,0,0,1-2.275,5.494,7.818,7.818,0,0,1-2.882,1.825H31.3c-.145-.052-.289-.107-.431-.168a2.243,2.243,0,0,0,.347-1.644v0a2.354,2.354,0,0,0-1.422-1.656,4.128,4.128,0,0,0-2.5-.241c-.08.016-.16.034-.239.054a7.762,7.762,0,0,1-.916-3.66v-3.763H41.681Zm-15.4,10.37a4.275,4.275,0,0,0,.723-2,3.75,3.75,0,0,1,.464-.125,2.664,2.664,0,0,1,2.684.771l-2.886.574a.449.449,0,1,0,.175.881l2.888-.574a1.743,1.743,0,0,1-.486.864l0,0a2.706,2.706,0,0,1-.37.314H25.7A4.539,4.539,0,0,0,26.286,211.417Zm13.75,4.811H27.788v-.807H40.036Z" transform="translate(-19.92 -186.464)"/>
  <path id="Path_63" data-name="Path 63" d="M269.9,8.976a.449.449,0,1,0,.478.76,3.078,3.078,0,0,0,.488-4.834,3.078,3.078,0,0,0-.488-4.834.449.449,0,1,0-.478.76,2.18,2.18,0,0,1,0,3.693.454.454,0,0,0,0,.76,2.18,2.18,0,0,1,0,3.693Z" transform="translate(-254.73 0)" fill="#fee6cc"/>
  <path id="Path_64" data-name="Path 64" d="M322.679,78.89a.449.449,0,1,0,.478.76,3.078,3.078,0,0,0,0-5.214.449.449,0,1,0-.478.76,2.18,2.18,0,0,1,0,3.693Z" transform="translate(-304.351 -69.914)" fill="#fee6cc"/>
  <path id="Path_65" data-name="Path 65" d="M212.794,78.889a.449.449,0,1,0,.478.76,3.078,3.078,0,0,0,0-5.214.449.449,0,0,0-.478.76,2.18,2.18,0,0,1,0,3.693Z" transform="translate(-201.046 -69.914)" fill="#fee6cc"/>
</svg>
