<svg xmlns="http://www.w3.org/2000/svg" width="27.915" height="27.915" viewBox="0 0 27.915 27.915">
  <g id="fish" transform="translate(-1 -1)">
    <path id="Path_66" data-name="Path 66" d="M19.777,34.92v1.792a.9.9,0,1,0-1.8,0v-1.8a.9.9,0,0,1,1.8,0Z" transform="translate(-9.335 -18.153)" fill="#e9573f"/>
    <path id="Path_67" data-name="Path 67" d="M23.33,42.717a2.708,2.708,0,0,0,2.7-2.7v1.792a2.7,2.7,0,0,1-2.7,2.7H21.97v-1.8h1.356Z" transform="translate(-11.528 -21.451)" fill="#656d78"/>
    <path id="Path_68" data-name="Path 68" d="M13.393,12a5.4,5.4,0,0,1,5.4,5.4l-.45,7.213h0a2.708,2.708,0,0,1-2.7,2.7h-1.36V25.962h1.36a1.356,1.356,0,0,0,1.346-1.346h0l.45-7.213a4.052,4.052,0,0,0-8.1,0l.45,7.208a1.355,1.355,0,0,0,1.337,1.351h1.36v1.351h-1.36a2.7,2.7,0,0,1-2.688-2.7L7.99,17.4A5.4,5.4,0,0,1,13.393,12Z" transform="translate(-3.843 -6.047)" fill="#e9573f"/>
    <path id="Path_69" data-name="Path 69" d="M13.038,42.711h0v1.8H11.687a2.7,2.7,0,0,1-2.7-2.7v-1.8a2.7,2.7,0,0,0,2.688,2.7h1.36Z" transform="translate(-4.393 -21.446)" fill="#656d78"/>
    <path id="Path_70" data-name="Path 70" d="M19.094,19.052l-.45,7.213h0a1.356,1.356,0,0,1-1.346,1.346h-1.36V24.46a.9.9,0,0,0-1.8,0v3.156h-1.36a1.355,1.355,0,0,1-1.337-1.351l-.45-7.208a4.052,4.052,0,0,1,8.1,0Zm-4.052,1.805a.9.9,0,1,0-.9-.9A.9.9,0,0,0,15.042,20.858Z" transform="translate(-5.492 -7.697)" fill="#fc6e51"/>
    <path id="Path_71" data-name="Path 71" d="M10.442,21.266v1.8H11.8a2.7,2.7,0,0,0,2.7-2.7V18.569h0l.45-7.213a5.4,5.4,0,1,0-10.806,0l.45,7.208v1.8a2.7,2.7,0,0,0,2.7,2.7H8.65v-1.8h0V18.56a.9.9,0,1,1,1.8,0v2.706ZM14.958,1A13.958,13.958,0,1,1,1,14.958,13.958,13.958,0,0,1,14.958,1Zm10.59,12.8a1.338,1.338,0,0,0-.6-2.233,1.341,1.341,0,0,0-1.158-2,1.341,1.341,0,0,0-1.634-1.639,1.344,1.344,0,0,0-2.009-1.158,1.338,1.338,0,0,0-2.233-.6A1.344,1.344,0,0,0,16.759,5.5v18.91a1.34,1.34,0,0,0,1.157-.662,1.338,1.338,0,0,0,2.233-.6,1.344,1.344,0,0,0,2.009-1.157,1.341,1.341,0,0,0,1.634-1.639,1.341,1.341,0,0,0,1.158-2,1.342,1.342,0,0,0,.6-2.238,1.337,1.337,0,0,0,0-2.314Z" fill="#e6e9ed"/>
    <path id="Path_72" data-name="Path 72" d="M45.131,18.01a1.337,1.337,0,0,1-.342,1.288,1.338,1.338,0,0,1,0,2.314,1.342,1.342,0,0,1-.6,2.238,1.341,1.341,0,0,1-1.158,2A1.341,1.341,0,0,1,41.4,27.492a1.344,1.344,0,0,1-2.009,1.157,1.338,1.338,0,0,1-2.233.6A1.34,1.34,0,0,1,36,29.91V11a1.344,1.344,0,0,1,1.157.666,1.338,1.338,0,0,1,2.233.6A1.344,1.344,0,0,1,41.4,13.422a1.34,1.34,0,0,1,1.634,1.638,1.341,1.341,0,0,1,1.158,2A1.34,1.34,0,0,1,45.131,18.01Z" transform="translate(-19.241 -5.498)" fill="#f6bb42"/>
    <path id="Path_73" data-name="Path 73" d="M19.439,28.808a.45.45,0,0,1-.45-.45v-.9a.45.45,0,1,1,.9,0v.9A.45.45,0,0,1,19.439,28.808Z" transform="translate(-9.89 -14.295)" fill="#ccd1d9"/>
    <path id="Path_74" data-name="Path 74" d="M19.44,21.161a.45.45,0,0,1-.45-.45V18.466a.45.45,0,1,1,.9,0v2.245A.45.45,0,0,1,19.44,21.161Z" transform="translate(-9.89 -9.355)" fill="#ccd1d9"/>
    <g id="Group_5" data-name="Group 5" transform="translate(18.109 9.556)">
      <path id="Path_75" data-name="Path 75" d="M41.35,32.806A1.352,1.352,0,0,1,40,31.455a.45.45,0,1,1,.9,0,.45.45,0,0,0,.45.45.45.45,0,1,1,0,.9Z" transform="translate(-39.549 -26.051)" fill="#edab37"/>
      <path id="Path_76" data-name="Path 76" d="M48.449,30.8a.45.45,0,1,1,0-.9.45.45,0,0,0,.45-.45.45.45,0,1,1,.9,0A1.352,1.352,0,0,1,48.449,30.8Z" transform="translate(-43.947 -24.951)" fill="#edab37"/>
      <path id="Path_77" data-name="Path 77" d="M46.45,38.8a.45.45,0,1,1,0-.9.45.45,0,0,0,.45-.45.45.45,0,0,1,.9,0A1.352,1.352,0,0,1,46.45,38.8Z" transform="translate(-42.848 -29.347)" fill="#edab37"/>
      <path id="Path_78" data-name="Path 78" d="M40.351,42.806a.45.45,0,0,1-.45-.45.45.45,0,0,0-.45-.45.45.45,0,1,1,0-.9A1.352,1.352,0,0,1,40.8,42.356.45.45,0,0,1,40.351,42.806Z" transform="translate(-39 -31.549)" fill="#edab37"/>
      <path id="Path_79" data-name="Path 79" d="M47.35,23.8a.45.45,0,0,1-.45-.45.45.45,0,0,0-.45-.45.45.45,0,0,1,0-.9A1.352,1.352,0,0,1,47.8,23.352.45.45,0,0,1,47.35,23.8Z" transform="translate(-42.848 -21.101)" fill="#edab37"/>
      <path id="Path_80" data-name="Path 80" d="M39.45,21.8a.45.45,0,0,1,0-.9.45.45,0,0,0,.45-.45.45.45,0,1,1,.9,0A1.352,1.352,0,0,1,39.45,21.8Z" transform="translate(-39 -20.003)" fill="#edab37"/>
    </g>
    <path id="Path_81" data-name="Path 81" d="M19.741,24.636a1.126,1.126,0,1,1-1.126-1.126A1.125,1.125,0,0,1,19.741,24.636Z" transform="translate(-9.065 -12.375)" fill="#e6e9ed"/>
  </g>
</svg>
