<svg xmlns="http://www.w3.org/2000/svg" width="27.393" height="24.986" viewBox="0 0 27.393 24.986">
  <g id="sandwich_1_" data-name="sandwich (1)" transform="translate(0 -2.153)">
    <path id="Path_43" data-name="Path 43" d="M26,37.948H1.4a1.4,1.4,0,0,1-1.4-1.4H0a1.4,1.4,0,0,1,1.4-1.4H26a1.4,1.4,0,0,1,1.4,1.4h0A1.4,1.4,0,0,1,26,37.948Z" transform="translate(0 -14.552)" fill="#6a3311"/>
    <path id="Path_44" data-name="Path 44" d="M26,33.948H1.4a1.4,1.4,0,0,1-1.4-1.4H0a1.4,1.4,0,0,1,1.4-1.4H26a1.4,1.4,0,0,1,1.4,1.4h0A1.4,1.4,0,0,1,26,33.948Z" transform="translate(0 -12.788)" fill="#a8431a"/>
    <path id="Path_45" data-name="Path 45" d="M3.634,28.271c-1.537,0-1.333-.564-1.4-1.118C.759,27.433,0,28.273,0,29.11c0,1.081,1.752,1.957,3.913,1.957s3.913-.876,3.913-1.957a1.224,1.224,0,0,0-.382-.839Z" transform="translate(0 -11.024)" fill="#ed3f32"/>
    <path id="Path_46" data-name="Path 46" d="M12.946,29.153a1.228,1.228,0,0,1,.392.839A1.52,1.52,0,0,1,12.5,31.2a5.924,5.924,0,0,0,3.075.749c2.161,0,3.913-.876,3.913-1.957a1.224,1.224,0,0,0-.382-.839Z" transform="translate(-5.512 -11.906)" fill="#f9ea80"/>
    <rect id="Rectangle_29" data-name="Rectangle 29" width="23.48" height="3.354" transform="translate(1.677 13.893)" fill="#d28f1b"/>
    <path id="Path_47" data-name="Path 47" d="M26.48,13.893H3L14.74,2.153Z" transform="translate(-1.323)" fill="#fde3aa"/>
    <path id="Path_48" data-name="Path 48" d="M40.52,28.692v.257H35.373c-.065.031-.126.064-.186.1a1.17,1.17,0,0,1,.3.742,1.4,1.4,0,0,1-.648,1.077,5.934,5.934,0,0,0,3.443.879c2.161,0,3.913-.751,3.913-1.677C42.2,29.5,41.533,29,40.52,28.692Z" transform="translate(-15.363 -11.703)" fill="#f9ea80"/>
    <path id="Path_49" data-name="Path 49" d="M24.171,29.153a1.222,1.222,0,0,1,.389.839A1.338,1.338,0,0,1,24,31a5.465,5.465,0,0,0,3.354.953c2.161,0,3.913-.876,3.913-1.957a1.224,1.224,0,0,0-.382-.839Z" transform="translate(-10.583 -11.906)" fill="#ed3f32"/>
    <circle id="Ellipse_8" data-name="Ellipse 8" cx="0.559" cy="0.559" r="0.559" transform="translate(18.448 11.098)" fill="#d28f1b"/>
    <circle id="Ellipse_9" data-name="Ellipse 9" cx="0.559" cy="0.559" r="0.559" transform="translate(12.299 6.066)" fill="#d28f1b"/>
    <circle id="Ellipse_10" data-name="Ellipse 10" cx="0.559" cy="0.559" r="0.559" transform="translate(7.268 11.098)" fill="#d28f1b"/>
    <circle id="Ellipse_11" data-name="Ellipse 11" cx="0.559" cy="0.559" r="0.559" transform="translate(14.535 9.421)" fill="#d28f1b"/>
    <circle id="Ellipse_12" data-name="Ellipse 12" cx="0.559" cy="0.559" r="0.559" transform="translate(11.181 9.98)" fill="#d28f1b"/>
    <rect id="Rectangle_30" data-name="Rectangle 30" width="25.591" height="3.743" transform="translate(0.684 23.397)" fill="#fde3aa"/>
    <circle id="Ellipse_13" data-name="Ellipse 13" cx="0.559" cy="0.559" r="0.559" transform="translate(16.771 23.956)" fill="#d28f1b"/>
    <circle id="Ellipse_14" data-name="Ellipse 14" cx="0.559" cy="0.559" r="0.559" transform="translate(21.244 25.074)" fill="#d28f1b"/>
    <circle id="Ellipse_15" data-name="Ellipse 15" cx="0.559" cy="0.559" r="0.559" transform="translate(3.354 25.074)" fill="#d28f1b"/>
    <circle id="Ellipse_16" data-name="Ellipse 16" cx="0.559" cy="0.559" r="0.559" transform="translate(12.858 25.074)" fill="#d28f1b"/>
    <circle id="Ellipse_17" data-name="Ellipse 17" cx="0.559" cy="0.559" r="0.559" transform="translate(7.827 23.956)" fill="#d28f1b"/>
  </g>
</svg>
